<svg xmlns="http://www.w3.org/2000/svg" viewBox="0 0 128 128" role="img" aria-labelledby="title">
  <title>YouTube Clean URL icon</title>
  <defs>
    <linearGradient id="bg" x1="20" y1="12" x2="108" y2="116" gradientUnits="userSpaceOnUse">
      <stop offset="0" stop-color="#ff3040"/>
      <stop offset="1" stop-color="#c90018"/>
    </linearGradient>
    <filter id="shadow" x="-20%" y="-20%" width="140%" height="140%">
      <feDropShadow dx="0" dy="5" stdDeviation="6" flood-color="#5c0008" flood-opacity="0.3"/>
    </filter>
  </defs>

  <rect x="8" y="8" width="112" height="112" rx="28" fill="url(#bg)" filter="url(#shadow)"/>
  <path
    d="M46 72c-9 0-16-7-16-16s7-16 16-16h20c9 0 16 7 16 16"
    fill="none"
    stroke="#fff"
    stroke-width="14"
    stroke-linecap="round"
    stroke-linejoin="round"
  />
  <path
    d="M82 56c9 0 16 7 16 16s-7 16-16 16H62c-9 0-16-7-16-16"
    fill="none"
    stroke="#fff"
    stroke-width="14"
    stroke-linecap="round"
    stroke-linejoin="round"
  />
  <path
    d="M55 64h18"
    fill="none"
    stroke="#fff"
    stroke-width="14"
    stroke-linecap="round"
  />
  <path
    d="M78 38l10 10 20-22"
    fill="none"
    stroke="#fff"
    stroke-width="10"
    stroke-linecap="round"
    stroke-linejoin="round"
  />
</svg>
